<mxfile host="Electron" agent="Mozilla/5.0 (X11; Linux x86_64) AppleWebKit/537.36 (KHTML, like Gecko) draw.io/25.0.2 Chrome/128.0.6613.186 Electron/32.2.5 Safari/537.36" version="25.0.2">
  <diagram name="Page-1" id="WeeqE2XpbRvoRxUxyfBr">
    <mxGraphModel dx="1364" dy="843" grid="1" gridSize="10" guides="1" tooltips="1" connect="1" arrows="1" fold="1" page="1" pageScale="1" pageWidth="1100" pageHeight="850" math="0" shadow="0">
      <root>
        <mxCell id="0" />
        <mxCell id="1" parent="0" />
        <mxCell id="ix2o161JEm-eRuG9daTn-6" value="" style="rounded=0;whiteSpace=wrap;html=1;strokeColor=none;container=0;" parent="1" vertex="1">
          <mxGeometry x="170" y="301.39" width="400" height="45" as="geometry" />
        </mxCell>
        <mxCell id="ix2o161JEm-eRuG9daTn-1" value="" style="shape=image;imageAspect=0;aspect=fixed;verticalLabelPosition=bottom;verticalAlign=top;image=data:image/png,iVBORw0KGgoAAAANSUhEUgAAAEgAAAA4CAYAAABez76GAAAABHNCSVQICAgIfAhkiAAAABl0RVh0U29mdHdhcmUAZ25vbWUtc2NyZWVuc2hvdO8Dvz4AAAOWSURBVGiB7ZlPSBRRHMe/RtREl13InR0MSdCD1aZr0EG8xBqUCdWhgxIFLR06dFBP66GDByGCTkEHw00pJSxEEBER7BAeAhllD/aH3A7Rzqxseoqly3YYxtXZ2fm9mXnrbvA+sKzOzPvjx/f9vdnZukKhUICgLEeqPYFaRwgiEIIIhCACIYhACCIQggiEIAIhiEAIIhCCCIQgAiGIQAgiEIIIhCCCmhWkDgxhte9OtadRm4LSE5PYWd9AXtOQnpis6lxqTtDO+gbSr4pSMotL2FnfqNp8ak7QD8uKyWsaNp88rdJs/ApKJIB4HEiluEzGjJYVnlFLr6lIPnzEfP1RX6PJsiEnkQC6u4G+PuOYB6zRspJZXEKgrQ3B9jZP/afXVHx4OY70muqqXZ2vr3103VhBJrIMRCKeRKkDQ2StkcJhdE6/dtXvbiaDlbEk1PmFA8dHPn1kau9/BUUixYjpuvFKpYBYzHgxiCoXLStm1Jru3WWa3uzIaIkYAAgoClN7gEeRjsVKj+k6MDUFDA8b7w5Q0bLCsqutjI3j8aUuWzkAEO29xjyev4gBpTGzQ5YNkf39JadYomWlXNTU+QXMjow6tg0oCgbnZpjH8r+CZNko0E6YKyoeP7CiWKNlxbqrqfMLeHbjNikHcLd6AB4rCCjuZKzIMvI9PVh9/sLzkFI4jMCtm1h88xa7mQxzu8G5mUOuQYBRqCMR9ut1HVIyic7GBgRbmj0Nmdc0/H733lWbgKK4kgPwvJO2K9YEUi6H6K+fnkX93d5G9FSQ+Xq38QJ4CnKzgiyYolqjbZDq6121Pf7nD04ztrn84L7rufETZN4T+UD5+gUdJ465EpXXNJw9KZHR8SIH4P1h1WYbd4uUy+2JaroYZRLFErUzHVFP8+EryG2xdkDK5dD0eXNPFIVT1AKKwtSHHfwfd3ASZGKK6mxscPwjnaLmpTib8BfkYTdjgUVUuah5rT9AJQRxKNZOUKKsUfMaLZPKPFHkUKwp9otSLhT/IdaotV/3Hi+gUoJCIc8Pztwi5XJo/f7twM2mGbWAoiDa2+Or/8oIkmXjodkhsv9mM9jSjMLWFrquXvHdL58Pq3boOjA9DSwvV6R7R2QZmXPnoQwO+O6qcoJMdB3IZos/m2SzxeN256yEQsa7GV3zd7tzHDeJygv6z6m578VqDSGIQAgiEIIIhCACIYhACCIQggiEIAIhiEAIIhCCCP4BZ/ZP9f8220kAAAAASUVORK5CYII=;container=0;" parent="1" vertex="1">
          <mxGeometry x="170" y="303.78" width="51.71" height="40.22" as="geometry" />
        </mxCell>
        <mxCell id="ix2o161JEm-eRuG9daTn-2" value="&lt;font face=&quot;Times New Roman&quot; color=&quot;#ff3333&quot; style=&quot;font-size: 30px;&quot;&gt;&lt;b&gt;&lt;i&gt;GenAI&lt;/i&gt;&lt;/b&gt;&lt;/font&gt;" style="rounded=0;whiteSpace=wrap;html=1;strokeColor=none;container=0;" parent="1" vertex="1">
          <mxGeometry x="298" y="300" width="110" height="50" as="geometry" />
        </mxCell>
        <mxCell id="ix2o161JEm-eRuG9daTn-3" value="&lt;font style=&quot;font-size: 30px;&quot;&gt;&lt;b&gt;Build&lt;/b&gt;&lt;/font&gt;" style="rounded=0;whiteSpace=wrap;html=1;strokeColor=none;container=0;" parent="1" vertex="1">
          <mxGeometry x="224" y="300" width="80" height="50" as="geometry" />
        </mxCell>
        <mxCell id="ix2o161JEm-eRuG9daTn-4" value="&lt;font face=&quot;Verdana&quot; color=&quot;#3333ff&quot; style=&quot;font-size: 30px;&quot;&gt;&lt;b&gt;App&lt;/b&gt;&lt;/font&gt;" style="rounded=0;whiteSpace=wrap;html=1;strokeColor=none;container=0;" parent="1" vertex="1">
          <mxGeometry x="400" y="300" width="66" height="50" as="geometry" />
        </mxCell>
        <mxCell id="ix2o161JEm-eRuG9daTn-5" value="&lt;font style=&quot;font-size: 30px;&quot; color=&quot;#00cc00&quot; face=&quot;Comic Sans MS&quot;&gt;&lt;b style=&quot;&quot;&gt;Quikly&lt;/b&gt;&lt;/font&gt;" style="rounded=0;whiteSpace=wrap;html=1;strokeColor=none;fontStyle=2;container=0;" parent="1" vertex="1">
          <mxGeometry x="468" y="300" width="92" height="50" as="geometry" />
        </mxCell>
      </root>
    </mxGraphModel>
  </diagram>
</mxfile>
